<?xml version="1.0" encoding="UTF-8"?>
<svg id="SVGDoc" width="24" height="22" xmlns="http://www.w3.org/2000/svg" version="1.1" xmlns:xlink="http://www.w3.org/1999/xlink" xmlns:avocode="https://avocode.com/" viewBox="0 0 24 22"><defs></defs><desc>Generated with Avocode.</desc><g><g><title>Rounded Rectangle 1</title><path d="M1.99994,-0.00253h19.99997c1.10458,0 2.00002,0.89591 2.00002,1.99977c0,1.10527 -0.89543,2.00024 -2.00002,2.00024h-19.99997c-1.10458,0 -2.00002,-0.89497 -2.00002,-2.00024c0,-1.10386 0.89543,-1.99977 2.00002,-1.99977z" fill="#ffffff" fill-opacity="1"></path></g><g><title>Rounded Rectangle 1</title><path d="M1.99994,8.99808h19.99997c1.10458,0 2.00002,0.89403 2.00002,1.99977c0,1.1048 -0.89543,2.00024 -2.00002,2.00024h-19.99997c-1.10458,0 -2.00002,-0.89544 -2.00002,-2.00024c0,-1.10574 0.89543,-1.99977 2.00002,-1.99977z" fill="#ffffff" fill-opacity="1"></path></g><g><title>Rounded Rectangle 1</title><path d="M1.99994,17.99728h19.99997c1.10458,0 2.00002,0.89591 2.00002,2.00024c0,1.1048 -0.89543,1.99977 -2.00002,1.99977h-19.99997c-1.10458,0 -2.00002,-0.89497 -2.00002,-1.99977c0,-1.10433 0.89543,-2.00024 2.00002,-2.00024z" fill="#ffffff" fill-opacity="1"></path></g></g></svg>